<svg width="200" height="200" viewBox="0 0 200 200" xmlns="http://www.w3.org/2000/svg">
  <defs>
    <linearGradient id="brainGradient" x1="0%" y1="0%" x2="100%" y2="100%">
      <stop offset="0%" style="stop-color:#8A2BE2;stop-opacity:1" />
      <stop offset="100%" style="stop-color:#4169E1;stop-opacity:1" />
    </linearGradient>
  </defs>
  <g>
    <path fill="url(#brainGradient)" d="M100,20 C140,20 160,60 160,100 C160,140 140,180 100,180 C60,180 40,140 40,100 C40,60 60,20 100,20 Z M100,30 C65,30 50,65 50,100 C50,135 65,170 100,170 C135,170 150,135 150,100 C150,65 135,30 100,30 Z"/>
    <circle cx="100" cy="100" r="10" fill="#FFFFFF"/>
    <path d="M 80 80 Q 90 90, 100 80" stroke="#FFFFFF" stroke-width="3" fill="none" />
    <path d="M 120 120 Q 110 110, 100 120" stroke="#FFFFFF" stroke-width="3" fill="none" />
    <path d="M 80 120 Q 90 110, 100 120" stroke="#FFFFFF" stroke-width="3" fill="none" />
    <path d="M 120 80 Q 110 90, 100 80" stroke="#FFFFFF" stroke-width="3" fill="none" />
  </g>
  <g transform="translate(20, 20)">
      <path d="M 50,140 L 20,110 L 50,80" stroke="#FFFFFF" stroke-width="10" fill="none" stroke-linecap="round" />
      <path d="M 110,140 L 140,110 L 110,80" stroke="#FFFFFF" stroke-width="10" fill="none" stroke-linecap="round" />
  </g>
</svg>